<?xml version="1.0" encoding="UTF-8"?><svg id="Ebene_1" xmlns="http://www.w3.org/2000/svg" viewBox="0 0 260 180"><defs><style>.cls-1{fill:#fff;}.cls-2{fill:#6c1d45;}.cls-3{fill:#ce0058;}</style></defs><path class="cls-1" d="m30.26,77.84c0-1.68.12-3.48.48-5.52.36-2.04.72-4.2,1.32-6.36.48-2.16,1.08-4.44,1.8-6.6.6-2.16,1.32-4.32,1.92-6.36.24-.72.48-1.2.72-1.56s.6-.6,1.08-.72,1.08-.12,1.8,0c.6.12,1.32.36,1.92.6.6.36,1.08.72,1.44,1.2.36.48.6,1.08.6,1.8,0,.48-.12,1.08-.36,1.68h0c-.48,1.56-1.08,3.36-1.68,5.4-.6,1.92-1.08,3.96-1.56,5.88-.48,1.92-.96,3.84-1.2,5.52-.36,1.8-.48,3.24-.48,4.32,0,.6,0,1.08.12,1.44s.24.48.48.36c.48-.12.96-.72,1.56-1.8.6-1.08,1.08-2.52,1.68-4.2s1.08-3.6,1.68-5.64,1.08-4.2,1.56-6.36c.48-2.16.96-4.2,1.32-6.24.36-2.04.72-3.72,1.08-5.16v.12c.12-.72.36-1.32.72-1.68.36-.36.72-.6,1.2-.72.36-.12.72-.12,1.08-.12s.84.12,1.2.24.84.24,1.2.36.84.24,1.2.48c.48.24.84.48.96.72.12.24.24.6.24,1.08v.6c0,.24-.12.48-.12.72-.72,3.84-1.56,7.44-2.28,10.8-.72,3.36-1.56,6.48-2.4,9.12-.84,2.76-1.8,5.16-2.76,7.2-.96,2.04-2.16,3.72-3.36,4.92-.72.6-1.44,1.2-2.16,1.56-.72.36-1.56.72-2.4.96-2.16.6-4.08.6-5.52.12-1.44-.48-2.64-1.68-3.36-3.48-.48-1.32-.72-2.88-.72-4.68Z"/><path class="cls-1" d="m74.54,57.09c-.48.48-.96,1.08-1.44,1.56.72.48,1.32,1.2,1.68,2.16.48.96.6,2.04.6,3,0,1.32-.24,2.4-.72,3.48-.48,1.08-1.2,2.16-2.04,3.24h0c-.6.84-1.44,1.8-2.28,2.64s-1.8,1.68-2.76,2.52c-.96.84-1.92,1.56-3,2.16-.96.72-1.92,1.32-2.76,1.8h0c-.84.48-1.56.84-2.04,1.08-.36.12-.78.16-1.08.12-.51-.07-2.4-.96-3.12-1.32-.6-.36-1.2-.96-1.8-1.68h0c-.36-.36-.6-.84-.72-1.08-.24-.36-.24-.84-.24-1.44,0-.24.12-1.44.12-1.68.24-1.92.6-3.96,1.08-6.24s.96-4.56,1.32-6.96c.48-2.4.96-4.68,1.32-7.08.48-2.4.72-4.56.96-6.72.84-.72,1.8-1.44,2.76-2.04,1.08-.72,2.04-1.32,3.12-1.92,1.08-.6,2.16-1.2,3.24-1.68s2.16-.84,3.24-1.08c1.32-.36,2.52-.48,3.6-.48s2.04.36,2.64.96c.36.36.72.84,1.08,1.2.36.48.6.96.96,1.44.24.6.48,1.2.6,1.8s.24,1.32.24,2.16c0,1.44-.36,2.88-.96,4.32-.72,1.44-2.32,4.47-3.6,5.76Zm-12.48,9c-.24.96-.48,1.92-.72,2.76-.24.84-.48,1.8-.72,2.64.96-.6,1.8-1.2,2.64-1.92.84-.6,1.44-1.32,2.04-1.92s.96-1.2,1.32-1.68.48-.96.48-1.44c0-.24-.24-.36-.6-.36s-.84,0-1.32.12c-.72.48-1.8.96-3.12,1.8Zm2.4-9.24c1.08-.84,2.16-1.68,3-2.52.84-.84,1.68-1.68,2.28-2.4s1.08-1.44,1.44-2.04.48-1.08.48-1.44c0-.24-.36-.24-1.2,0-.6.12-1.2.48-1.92.84s-1.56.96-2.52,1.68c-.24.72-.48,1.56-.72,2.4-.24.84-.48,1.68-.72,2.64,0,.24,0,.48-.12.84Z"/><path class="cls-1" d="m83.29,37.41c.96-.48,2.04-1.08,3.24-1.68l3.6-1.8c1.2-.6,2.52-1.2,3.84-1.68,1.32-.6,2.64-.96,3.84-1.44h.24c.72-.24,1.32-.24,1.8.12.48.24.72.72.96,1.32h0c.24.6.36,1.08.48,1.44.12.36.24.84.24,1.32h0c.12.24.12.6.12.96,0,.72-.12,1.32-.48,1.68-.24.36-.84.72-1.68,1.08-1.32.48-2.52.96-3.84,1.56-1.32.48-2.76,1.08-4.2,1.8-.24.96-.6,2.04-.96,3.24s-.6,2.28-.96,3.48c1.08-.36,2.04-.84,3.12-1.08l.24-.12c.72-.24,1.32-.24,1.68-.12s.72.48.96,1.2h0c.24.6.48,1.08.6,1.68s.24,1.08.36,1.68h0c.12.36.12.72.12.96,0,.48-.12.84-.36,1.32-.24.36-.6.72-1.08.96s-.96.6-1.56.84-1.2.48-1.8.84h0c-.96.48-1.8.96-2.64,1.32s-1.68.84-2.64,1.32c-.24.6-.36,1.32-.6,1.92-.24.72-.36,1.32-.36,1.8.96-.48,1.92-.84,2.88-1.32.96-.48,2.04-.84,3.12-1.08.6-.12,1.2-.12,1.56,0,.36.24.72.6.96,1.2h0c.24.6.6,1.32.84,2.04.24.72.36,1.44.36,2.16,0,.6-.12,1.08-.36,1.44-.24.36-.72.72-1.44.96-1.56.84-3.12,1.68-4.8,2.52-1.68.84-3.24,1.68-4.8,2.52h0c-.72.36-1.2.6-1.68.72s-.96.24-1.44.12c-.36,0-.72-.24-1.08-.48-.36-.24-.72-.48-1.08-.84l-1.2-1.2h0c-.36-.36-.6-.72-.84-1.2,0-.48-.12-1.08-.12-1.8,0-.36,0-.84.12-1.32l6.36-29.51.36-.84Z"/><path class="cls-1" d="m113.53,62.48c-.6-.48-1.32-1.08-1.92-1.8-.72-.6-1.32-1.32-1.92-2.04-.6-.72-1.2-1.44-1.8-2.16-.48,1.8-.84,3.48-1.2,5.04-.36,1.68-.84,3.24-1.2,4.92-.12.6-.36,1.08-.6,1.44s-.6.6-1.08.72c-.36.12-.6.12-.96.12-.6,0-1.2-.12-1.68-.12-.6,0-1.08-.12-1.44-.24-.48-.12-.72-.48-.96-.84-.24-.36-.36-.96-.36-1.8,0-.36,0-.84.12-1.32.12-.96.48-2.4.84-4.32.36-1.92.72-4.08,1.2-6.36.48-2.28.96-4.68,1.44-7.2.48-2.52,1.08-4.8,1.56-6.96s1.08-3.96,1.68-5.52c.6-1.56,1.08-2.52,1.56-2.88.96-.72,1.92-1.44,2.88-2.16.96-.72,2.04-1.44,3-2.04s2.04-1.2,3-1.68,1.92-.84,2.88-1.08c1.08-.24,2.04-.36,3-.24s1.8.48,2.52,1.32c.48.48.84.96,1.32,1.56s.84,1.2,1.2,1.92c.36.72.6,1.56.84,2.4.24.84.36,1.92.36,3,0,.6,0,1.2-.12,1.8-.12.48-.24,1.08-.48,1.56h0c-.84,2.16-2.28,4.44-4.2,6.6-1.92,2.16-4.2,4.32-6.84,6.6.48.6,1.08,1.32,1.68,2.04.6.72,1.2,1.32,1.8,2.04.6.72,1.2,1.32,1.8,1.92s1.2,1.08,1.68,1.56h0c.6.48.84.96.84,1.68,0,.48-.12.84-.36,1.32-.24.48-.6.84-.96,1.2s-.72.6-1.08.84-.6.48-.84.48h0c-.24.12-.6.36-.84.48-.24.12-.6.24-.84.36-.48.12-.96.12-1.56.12s-1.08-.24-1.68-.6c-1.08-.72-1.68-1.2-2.28-1.68Zm4.17-28.53c-.67.15-1.29.34-2.01.7-.72.36-1.44.84-2.28,1.44-.36,1.08-.72,2.28-1.08,3.48s-.72,2.52-1.08,3.84h0c0,.24-.12.36-.12.6s-.12.36-.12.6c1.32-.96,2.4-2.04,3.48-3,1.08-1.08,1.92-2.04,2.64-3s1.2-1.8,1.68-2.64c.36-.84.68-1.41.62-1.79s-.77-.42-1.72-.23Z"/><path class="cls-2" d="m227.52,33.55c-11.31,2.06-32.4,16.2-34.82,17.81-2.18,1.45-2.06,5.03-2.06,5.03-1.98-5.8-31.04-14.28-42.53,15.5-1.79-8.51-3.03-13.3-19.48-11.43.17-1.34.09-2.59-1.06-3.74,5.86-5.91,8.88-11.24,8.03-16.56-1.96-12.16-7.7-21.32-14.82-20.44-6.08.75-13.31,4.81-16.79,8.35-2.16-2.89-6.75-1.73-14.89,1.94-6.57,2.96-9,4.55-9.85,6.71-7.77-5.05-21.21,4.58-23.75,6.86-3.45-1.78-9.53-.67-11.33,3.97-1.14-1.13-7.44-2.86-10.53,1.39-3.09,4.25-7.94,22.87-7.11,31.36.83,8.5,4.98,13.9,5.48,14.6-11.91,16.82-10.48,28.96-5.92,33.58-2.19.5-6.1,1.93-7.58,7.7-3.91,15.22,12.59,24.17,23.09,24.15,7.99-.02,16.68-5.34,18.98-8.74,3.12,3.26,11.18,4.62,15.33,2.31,4.15-2.31,6.15-15.01,7.13-19.5,1.79-1.09,7.45-4.71,8.34-5.3-1.91,7.37.41,13.52,4.13,16.51,3.47,2.79,11.37,4.99,15.68,2.37,3.63-2.21,6.34-9.58,7.82-15.07,1.69-.8,5.82-2.83,6.31-3.03,0,0,1.67,5.73,4.57,8.77,2.52,2.64,18.04,2.99,20.02-4.65,6.85,6.69,29.21,7.93,39.75-12.32,1.96,6.02,9.8,10.4,15.49,9.89,6.52-.59,27.59-13.04,31.73-19.49,3.27-5.1-4.58-18.42-4.68-18.62,8.81-4.83,4.28-17.81-2.38-26.13,2.29-1.19,9.23-3.49,11.73-7.35,2.49-3.87-3.21-28.38-14-26.42Zm-119.06,49.87c-.1-.3-1.66-3.37-1.86-3.77.78.06,2.92.11,3.91-.59-.47.79-1.85,3.97-2.05,4.36Zm63.1,13.61c.37-1.64,1.53-5.59,2.29-6.96.71,1.33,2.88,4.02,4.07,4.07-1.53.31-4.23,1.11-6.36,2.88Z"/><path class="cls-3" d="m83.83,38.5c.25-.79,14.27-7.58,16.36-6.95,1.86.57,2.58,5.41,1.82,6.72-.58,1-8.31,3.6-9.84,4.51-.2.99-1.59,5.47-1.99,6.66,1.09-.4,3.68-1.61,4.97-1.29s2.34,5.3,2.06,6.24c-.14.48-1,1.63-1.51,1.78-3.08.94-7.83,3.62-8.5,4-.2.6-.99,3.18-.99,3.68.99-.5,6.15-3.03,7.55-2.38s2.72,5.34,1.95,6.65c-.26.44-.92.92-1.56,1.1-.57.16-9.56,5.31-11.76,5.84-1.2.29-4.19-1.68-5.09-3.99s6.27-31.77,6.52-32.56Z"/><path class="cls-3" d="m31.51,76.67c.26-4.07,4.53-25.26,7.29-25.45s5.72.99,5.66,3.58c-.03,1.27-2.15,6.7-3.53,12.35-1.43,5.86-2.51,11.63-1.43,12.11,1.71.75,4.51-9.57,5.16-11.54,1.47-4.46,3.53-17.98,4.67-19.28,1.4-1.6,6.87-.57,7.06,1.8.15,1.87-1.69,8.94-2.39,12.31-.7,3.38-1.59,6.46-2.38,9.04-.79,2.78-1.1,3.56-2.78,7.15-1.68,3.59-3.88,5.5-5.56,6.46s-4.87,2.06-7.85,1.09-4.17-5.56-3.91-9.63Z"/><path class="cls-3" d="m50.63,99.32v.1c-5.42,4.84-8.92,13.13-6.26,16.2s11,7.73,12.72,10.14,1.57,5.29.6,8.45c-.97,3.16-6.66,12.04-14.84,13.79-3.38.72-7.98.73-10.96-.64-5.56-2.56-10.18-7.98-9.52-10.78,1.18-5.02,7.84-5.15,9.39-4.77s9.86,6.32,13.02,2.59c.35-.42-1.11-1.78-4.13-3.7-5.87-3.74-12.35-7.37-11.86-15.57.1-1.62.7-6.71,3.33-11.61,3.25-6.04,10.13-14.33,12.07-15.68,3.55-2.46,15-4.53,19.57,5.14,1.58,3.34-.68,15.52-5.48,23.69-.62,1.05-10.84.71-9.93-6.5.45-3.56,2.38-10.13,2.38-10.93l-.1.1Z"/><path class="cls-3" d="m186.66,80.34c-2.49,3.13-8.59,2.33-11.04.32-4.66-3.82-1.41-11.05-3.96-11.65-3.08-.72-9.65,24.08-10.12,26.6-1.01,5.45-1.11,16.17,1.57,16.92s7.08-11.71,12.61-13.3c4.57-1.31,6.98-1.82,8.8.46,1.82,2.29-2.39,12.75-6.7,17.81-4.31,5.06-14.8,11.51-24.35,8.45-3.93-1.26-8.12-5.56-8.86-16.18-1.02-14.75,6.2-38.32,15.81-48.11,9.88-10.06,23.86-5.5,26.13-1.99,2.14,3.3,2.59,17.54.1,20.67Z"/><path class="cls-3" d="m233,50.39c-.65.96-2.77,2.08-4.87,2.97-3.82,1.63-12.58,6.38-14.45,7.31-.4,1.79-1.69,10.04-2.09,12.22,2.57-1.03,9.33-5.01,11.73-3.08,2.51,2.02,5.64,7.43,4.07,10.33-.57,1.07-2.31,2.4-5.66,4.18-4.66,2.48-12.2,7.03-13.12,7.65-.2,1.09-.89,5.96-.89,6.96,1.79-1.09,12.54-7.28,15.1-6.46,3.72,1.19,7.34,8.6,5.37,11.13-.54.69-2.76,2.69-3.9,3.27-6.57,3.38-16.96,10-17.56,10.54-.83.75-3.08,2.29-6.16,2.29s-9.74-3.17-10.6-7.09c-.87-3.96,4.43-53.3,4.64-56.21.21-.92,4.89-3.68,9.59-6.55,8.88-5.43,20.95-12.16,23.99-11.03,4.24,1.57,6.3,9.38,4.81,11.58Z"/><path class="cls-3" d="m140.75,81.63c.62-7.31.85-12.82-.4-14.71-1.5-2.25-15.85-2.07-20.67,2.29-3.26,2.95-17.99,41.34-19.77,46.21-1.79,4.87-5.99,15.91-5,17.98s7.62,4.99,9.67,3.11c2.46-2.27,4.86-10.22,6.46-14.34,2.09-1.19,12.72-6.06,15.6-7.25.82,5.24.09,10.7,1.79,12.32,2.05,1.95,10.36,1.34,12.32-1.29,1.17-1.57.3-4.4.28-9.25-.05-11.46-.71-29.93-.28-35.07Zm-14.81,18.98c-1.29.4-6.26,2.38-7.55,2.98,1.39-3.38,6.56-15.5,7.55-18.28v15.3Z"/><path class="cls-3" d="m95.64,77.26c-6.6-1.2-19.63,6.27-25.46,11.62-1.92,2.29-5.61,22.25-7.98,36.47-1.65,9.91-4.26,13.27-2.44,15.41,2.15,2.52,7.3,3.01,9.45,2.02s4.24-11.51,5.76-18.72c13.53-7.3,24.38-17.98,28.02-25.44,3.64-7.45-.75-20.17-7.35-21.36Zm-16.1,30.01c.82-3.19,3.08-10.73,3.78-12.82,3.4-2.14,8.12-3.87,8.93-3.07.92.9-2.34,9.33-12.71,15.89Z"/><path class="cls-3" d="m80.04,47c-.25-3.02-2.14-6.49-5.47-6.8-3.71-.35-12.18,3.82-15.8,7.15-.12.11-1.06,8.07-2.2,14.17-1.14,6.1-3.28,12.81-2.37,15.74.55,1.79,4.97,4.79,6.66,3.97,1.8-.87,13.98-7.76,15.31-14.6.65-3.36-.02-6.04-2.09-7.36,4.29-4.53,6.21-9.26,5.96-12.28Zm-18.28,25c.28-1.07,1.19-4.37,1.39-5.37,1.29-.89,2.56-1.53,3.08-1.79.12-.06,1.79-.27,1.89.3.3,1.68-4.87,6.1-6.36,6.86Zm3.78-14.61c.06-.33,1.39-5.07,1.59-5.76,1-1.09,5.17-3.23,5.56-2.48.49.92-3.7,5.88-7.15,8.25Z"/><path class="cls-3" d="m124.66,25.99c-2.45-2.08-5.15-1.57-8.35,0s-7.85,5.17-8.84,5.86c-2.55,1.18-8.59,32.56-8.35,35.18s5.11,2.49,6.31,1.6,2.49-9.68,3.23-11.54c1.74,2.7,6.97,7.93,9.44,8.15s6.05-2.79,6.46-4.77c.13-.62,0-1.13-2.14-2.94-.46-.39-4.46-4.52-5.61-6.2,2.58-2.29,9.34-8.6,10.93-13.12s-.63-10.15-3.08-12.22Zm-12.92,19.28c.35-2.21,1.99-7.35,2.38-8.45.9-.82,5.38-3.25,5.96-1.89.67,1.58-5.4,8.39-8.35,10.33Z"/></svg>