<?xml version="1.0" encoding="UTF-8"?>
<svg id="Ebene_1" data-name="Ebene 1" xmlns="http://www.w3.org/2000/svg" viewBox="0 0 128 80">
  <defs>
    <style>
      .cls-1 {
        fill: #fff;
      }

      .cls-1, .cls-2 {
        stroke-width: 0px;
      }

      .cls-2 {
        fill: #ce0058;
      }
    </style>
  </defs>
  <path class="cls-1" d="M119.21,7.9c-6.43,1.17-18.42,9.21-19.8,10.13-1.24.82-1.17,2.86-1.17,2.86-1.13-3.3-17.65-8.12-24.19,8.82-1.02-4.84-1.73-7.57-11.08-6.5.1-.76.05-1.47-.6-2.13,3.34-3.36,5.05-6.39,4.56-9.42C65.82,4.74,62.55-.47,58.51.03c-3.46.43-7.57,2.73-9.55,4.75-1.23-1.64-3.84-.99-8.47,1.1-3.73,1.68-5.12,2.59-5.6,3.81-4.42-2.87-12.07,2.6-13.51,3.9-1.96-1.01-5.42-.38-6.44,2.26-.65-.64-4.23-1.62-5.99.79-1.76,2.42-4.52,13.01-4.05,17.84.47,4.83,2.83,7.91,3.11,8.3-6.77,9.57-5.96,16.47-3.37,19.1-1.24.28-3.47,1.1-4.31,4.38-2.22,8.66,7.16,13.75,13.13,13.73,4.54-.01,9.49-3.04,10.79-4.97,1.78,1.85,6.36,2.63,8.72,1.31,2.36-1.31,3.5-8.54,4.06-11.09,1.02-.62,4.24-2.68,4.74-3.02-1.09,4.19.23,7.69,2.35,9.39,1.97,1.59,6.47,2.84,8.92,1.35,2.06-1.25,3.61-5.45,4.44-8.57.96-.45,3.31-1.61,3.59-1.72,0,0,.95,3.26,2.6,4.99,1.43,1.5,10.26,1.7,11.38-2.64,3.89,3.8,16.61,4.51,22.61-7.01,1.11,3.43,5.58,5.92,8.81,5.62,3.71-.34,15.69-7.42,18.04-11.08,1.86-2.9-2.61-10.48-2.66-10.59,5.01-2.75,2.44-10.13-1.36-14.86,1.3-.68,5.25-1.98,6.67-4.18,1.42-2.2-1.82-16.14-7.96-15.03ZM51.5,36.26c-.06-.17-.94-1.92-1.06-2.15.44.03,1.66.06,2.22-.34-.27.45-1.05,2.26-1.17,2.48ZM87.39,44c.21-.93.87-3.18,1.3-3.96.4.76,1.64,2.29,2.32,2.32-.87.18-2.41.63-3.62,1.64Z"/>
  <path class="cls-2" d="M37.49,10.71c.14-.45,8.12-4.31,9.3-3.95,1.06.32,1.47,3.08,1.04,3.82-.33.57-4.72,2.05-5.6,2.57-.11.57-.9,3.11-1.13,3.79.62-.23,2.1-.92,2.83-.73s1.33,3.02,1.17,3.55c-.08.27-.57.93-.86,1.01-1.75.53-4.45,2.06-4.83,2.27-.11.34-.57,1.81-.57,2.09.57-.28,3.5-1.72,4.3-1.36s1.55,3.04,1.11,3.78c-.15.25-.52.52-.88.63-.32.09-5.44,3.02-6.69,3.32-.68.16-2.38-.96-2.89-2.27s3.57-18.07,3.71-18.52Z"/>
  <path class="cls-2" d="M7.74,32.42c.15-2.32,2.58-14.37,4.15-14.47s3.26.57,3.22,2.03c-.02.72-1.22,3.81-2.01,7.03s-1.43,6.62-.81,6.89c.97.43,2.56-5.44,2.93-6.56.84-2.54,2.01-10.22,2.66-10.96.8-.91,3.9-.33,4.01,1.02.09,1.06-.96,5.08-1.36,7-.4,1.92-.9,3.67-1.36,5.14-.45,1.58-.63,2.03-1.58,4.07s-2.21,3.13-3.16,3.67-2.77,1.17-4.46.62-2.37-3.16-2.22-5.48Z"/>
  <path class="cls-2" d="M18.61,45.3v.06c-3.08,2.75-5.07,7.47-3.56,9.21s6.26,4.39,7.23,5.76.89,3.01.34,4.8-3.79,6.85-8.44,7.85c-1.92.41-4.54.42-6.23-.36-3.16-1.45-5.79-4.54-5.42-6.13.67-2.86,4.46-2.93,5.34-2.71s5.61,3.59,7.4,1.47c.2-.24-.63-1.01-2.35-2.11-3.34-2.13-7.02-4.19-6.75-8.86.05-.92.4-3.82,1.9-6.61,1.85-3.43,5.76-8.15,6.86-8.92,2.02-1.4,8.53-2.58,11.13,2.92.9,1.9-.39,8.83-3.11,13.48-.35.6-6.16.4-5.64-3.7.26-2.03,1.36-5.76,1.36-6.22l-.06.06Z"/>
  <path class="cls-2" d="M95.98,34.51c-1.42,1.78-4.89,1.32-6.28.18-2.65-2.17-.8-6.28-2.25-6.62-1.75-.41-5.49,13.7-5.75,15.13-.57,3.1-.63,9.2.89,9.62s4.02-6.66,7.17-7.56c2.6-.75,3.97-1.04,5,.26s-1.36,7.25-3.81,10.13-8.42,6.55-13.85,4.8c-2.23-.72-4.62-3.16-5.04-9.2-.58-8.39,3.53-21.79,8.99-27.36,5.62-5.72,13.57-3.13,14.86-1.13,1.22,1.88,1.48,9.98.06,11.75Z"/>
  <path class="cls-2" d="M122.33,17.47c-.37.55-1.58,1.18-2.77,1.69-2.17.93-7.15,3.63-8.22,4.16-.23,1.02-.96,5.71-1.19,6.95,1.46-.59,5.31-2.85,6.67-1.75s3.21,4.22,2.32,5.88c-.33.61-1.32,1.36-3.22,2.38-2.65,1.41-6.94,4-7.46,4.35-.11.62-.51,3.39-.51,3.96,1.02-.62,7.13-4.14,8.59-3.67,2.11.68,4.18,4.89,3.05,6.33-.31.39-1.57,1.53-2.22,1.86-3.74,1.92-9.65,5.69-9.99,5.99-.47.42-1.75,1.3-3.5,1.3s-5.54-1.8-6.03-4.03,2.52-30.31,2.64-31.97c.12-.52,2.78-2.09,5.45-3.73,5.05-3.09,11.91-6.92,13.65-6.28,2.41.89,3.58,5.33,2.73,6.59Z"/>
  <path class="cls-2" d="M69.87,35.24c.35-4.16.49-7.29-.23-8.36-.85-1.28-9.02-1.18-11.75,1.3-1.85,1.68-10.23,23.51-11.25,26.28-1.02,2.77-3.41,9.05-2.84,10.23s4.34,2.84,5.5,1.77c1.4-1.29,2.76-5.81,3.67-8.15,1.19-.68,7.23-3.45,8.87-4.13.46,2.98.05,6.08,1.02,7.01,1.16,1.11,5.89.76,7.01-.73.66-.89.17-2.5.16-5.26-.03-6.52-.41-17.02-.16-19.94ZM61.45,46.04c-.73.23-3.56,1.36-4.29,1.7.79-1.92,3.73-8.82,4.29-10.4v8.7Z"/>
  <path class="cls-2" d="M44.21,32.75c-3.75-.68-11.17,3.56-14.48,6.61-1.09,1.3-3.19,12.66-4.54,20.74-.94,5.64-2.43,7.55-1.39,8.76,1.22,1.43,4.15,1.71,5.37,1.15s2.41-6.55,3.27-10.65c7.7-4.15,13.87-10.23,15.94-14.47s-.43-11.47-4.18-12.15ZM35.06,49.82c.47-1.81,1.75-6.1,2.15-7.29,1.93-1.22,4.62-2.2,5.08-1.75.52.51-1.33,5.31-7.23,9.04Z"/>
  <path class="cls-2" d="M35.34,15.54c-.14-1.72-1.22-3.69-3.11-3.87-2.11-.2-6.92,2.17-8.99,4.07-.07.06-.6,4.59-1.25,8.06s-1.87,7.28-1.35,8.95c.31,1.02,2.83,2.72,3.79,2.26,1.02-.49,7.95-4.41,8.71-8.3.37-1.91-.01-3.44-1.19-4.18,2.44-2.57,3.53-5.27,3.39-6.98ZM24.94,29.76c.16-.61.68-2.49.79-3.05.73-.51,1.46-.87,1.75-1.02.07-.03,1.02-.15,1.07.17.17.96-2.77,3.47-3.62,3.9ZM27.09,21.45c.04-.19.79-2.88.9-3.28.57-.62,2.94-1.84,3.16-1.41.28.53-2.11,3.34-4.07,4.69Z"/>
  <path class="cls-2" d="M60.71,3.59c-1.39-1.18-2.93-.89-4.75,0s-4.46,2.94-5.03,3.33c-1.45.67-4.88,18.52-4.75,20.01s2.9,1.41,3.59.91,1.41-5.51,1.84-6.56c.99,1.54,3.96,4.51,5.37,4.63s3.44-1.59,3.67-2.71c.07-.35,0-.64-1.22-1.67-.26-.22-2.54-2.57-3.19-3.53,1.47-1.3,5.31-4.89,6.22-7.46s-.36-5.77-1.75-6.95ZM53.37,14.56c.2-1.26,1.13-4.18,1.36-4.8.51-.47,3.06-1.85,3.39-1.07.38.9-3.07,4.77-4.75,5.88Z"/>
</svg>